<mxfile host="app.diagrams.net" modified="2024-01-22T06:51:00.961Z" agent="Mozilla/5.0 (Windows NT 10.0; Win64; x64) AppleWebKit/537.36 (KHTML, like Gecko) Chrome/120.0.0.0 Safari/537.36" version="22.1.21" etag="8wPZgKTNRQp1zxvYGE42" type="github">
  <diagram name="Halaman-1" id="wxEiF8Qc0RG2Pjctif9d">
    <mxGraphModel>
      <root>
        <mxCell id="0" />
        <mxCell id="1" parent="0" />
      </root>
    </mxGraphModel>
  </diagram>
</mxfile>
